<?xml version="1.0" standalone="no"?>
<!DOCTYPE svg PUBLIC "-//W3C//DTD SVG 20010904//EN"
 "http://www.w3.org/TR/2001/REC-SVG-20010904/DTD/svg10.dtd">
<svg version="1.0" xmlns="http://www.w3.org/2000/svg"
 width="531.000000pt" height="531.000000pt" viewBox="0 0 531.000000 531.000000"
 preserveAspectRatio="xMidYMid meet">
<metadata>
Created by potrace 1.11, written by Peter Selinger 2001-2013
</metadata>
<g transform="translate(0.000000,531.000000) scale(0.100000,-0.100000)"
fill="#000000" stroke="none">
<path d="M1100 4557 c-3 -2 -43 -7 -90 -11 -47 -3 -96 -8 -110 -10 -14 -3 -45
-7 -70 -10 -25 -3 -54 -8 -65 -10 -11 -2 -67 -13 -125 -25 -58 -11 -136 -29
-175 -39 l-70 -18 0 -1393 -1 -1393 26 5 c14 3 75 16 135 30 120 26 208 44
270 52 22 3 54 8 70 10 17 3 59 7 95 11 36 3 83 7 105 9 51 6 306 5 365 0 119
-11 163 -18 270 -45 196 -50 343 -106 525 -200 109 -57 193 -106 250 -146 17
-11 35 -23 41 -27 7 -4 10 416 10 1389 l-1 1395 -90 58 c-74 49 -301 169 -380
201 -11 5 -36 16 -55 24 -84 37 -312 104 -410 122 -19 3 -46 8 -60 10 -37 7
-454 17 -460 11z m701 -674 c158 -44 261 -117 320 -225 33 -62 34 -65 34 -183
0 -109 -2 -125 -27 -177 -29 -63 -93 -137 -144 -169 -33 -20 -44 -39 -23 -39
33 0 127 -61 179 -116 82 -89 103 -147 104 -289 0 -91 -4 -120 -22 -166 -41
-104 -138 -190 -267 -238 -136 -51 -166 -53 -727 -58 l-528 -5 0 847 0 846
513 -3 c487 -4 516 -5 588 -25z"/>
<path d="M1080 3420 l0 -201 268 3 c294 4 314 7 378 69 65 63 70 179 11 246
-64 72 -88 78 -389 81 l-268 3 0 -201z"/>
<path d="M1084 2927 c-2 -7 -3 -102 -2 -212 l3 -200 235 -3 c345 -4 446 15
508 96 22 29 27 47 30 106 2 59 -1 78 -20 111 -31 52 -103 92 -194 105 -107
15 -553 13 -560 -3z"/>
<path d="M4067 4554 c-1 -1 -60 -4 -132 -8 -154 -8 -184 -12 -275 -32 -14 -3
-36 -7 -50 -10 -14 -2 -36 -9 -50 -14 -14 -5 -59 -19 -100 -31 -91 -26 -272
-100 -400 -165 -98 -49 -260 -145 -282 -168 -10 -10 -13 -285 -12 -1397 1
-761 2 -1387 3 -1391 0 -4 29 12 64 36 124 86 387 215 563 275 265 90 356 105
634 105 224 1 268 -2 455 -30 65 -10 274 -55 320 -69 28 -8 57 -15 65 -15 13
0 15 161 14 1392 l-1 1393 -64 18 c-73 19 -332 72 -399 81 -95 13 -348 34
-353 30z m78 -659 c294 -52 458 -244 417 -487 -21 -119 -87 -222 -181 -280
l-33 -21 68 -32 c170 -79 254 -226 242 -421 -8 -113 -38 -186 -108 -255 -96
-96 -230 -150 -424 -168 -55 -6 -304 -12 -552 -15 l-452 -5 -6 477 c-3 262 -8
642 -11 844 l-6 367 88 4 c48 1 264 4 479 5 314 2 409 -1 479 -13z"/>
<path d="M3490 3416 l0 -206 103 1 c56 0 174 4 263 8 147 6 165 9 217 35 74
36 107 88 107 167 0 80 -30 126 -105 164 l-60 30 -262 3 -263 3 0 -205z"/>
<path d="M3686 2933 l-199 -3 6 -83 c4 -45 7 -140 7 -210 l0 -129 288 4 c312
5 349 11 419 63 44 35 63 79 63 151 0 68 -21 116 -66 150 -71 55 -155 64 -518
57z"/>
<path d="M136 4183 c-1 -1 -27 -6 -57 -10 l-54 -8 -1 -1510 c-1 -831 0 -1517
2 -1526 4 -15 11 -15 82 2 95 22 94 22 313 59 170 29 204 34 319 46 30 3 66 7
80 10 54 9 252 18 390 18 197 0 316 -10 475 -39 157 -30 512 -161 614 -228 20
-13 44 -26 53 -30 28 -10 209 -133 268 -182 30 -25 57 -45 60 -45 3 0 16 10
30 23 33 29 153 117 210 153 97 61 199 114 357 185 106 48 358 120 468 135 28
3 52 8 55 9 39 24 593 24 730 1 14 -2 52 -7 85 -10 104 -11 485 -76 537 -92
10 -3 30 -8 45 -10 16 -3 44 -9 64 -13 l37 -8 0 1518 0 1518 -31 5 c-18 3 -63
10 -101 16 -37 6 -71 9 -73 6 -3 -3 -6 -640 -6 -1416 0 -877 -3 -1410 -9
-1410 -5 0 -46 9 -89 20 -121 31 -368 76 -519 95 -229 28 -590 28 -745 0 -269
-49 -537 -147 -785 -287 -109 -62 -205 -124 -236 -151 -21 -18 -23 -18 -128
52 -128 84 -281 168 -408 222 -51 22 -102 44 -113 49 -25 12 -243 77 -304 91
-155 35 -245 43 -481 44 -184 0 -339 -8 -410 -19 -26 -5 -80 -12 -160 -22 -25
-3 -70 -10 -100 -15 -30 -6 -71 -13 -90 -16 -19 -2 -96 -18 -170 -34 -74 -16
-138 -29 -142 -29 -5 0 -8 639 -8 1420 l0 1420 -26 -2 c-14 -2 -26 -4 -28 -5z"/>
</g>
</svg>
